PathFileType	3	(X/Y/Z)	RCH0000002 BBF 05.c3d
DataRate	CameraRate	NumFrames	NumMarkers	Units	OrigDataRate	OrigDataStartFrame	OrigNumFrames
100.0	100.0	13	23	mm	100.0	285	252
Frame#	Time	T2			T10			MAN			LASI			RASI			LPSI			RPSI			LPAT			LKNE			LANK			LMED			LHEE			LTOE			RPAT			RKNE			RANK			RMED			RHEE			RTOE			RTHI			LTHI			RTIB			LTIB			
		X1	Y1	Z1	X2	Y2	Z2	X3	Y3	Z3	X4	Y4	Z4	X5	Y5	Z5	X6	Y6	Z6	X7	Y7	Z7	X8	Y8	Z8	X9	Y9	Z9	X10	Y10	Z10	X11	Y11	Z11	X12	Y12	Z12	X13	Y13	Z13	X14	Y14	Z14	X15	Y15	Z15	X16	Y16	Z16	X17	Y17	Z17	X18	Y18	Z18	X19	Y19	Z19	X20	Y20	Z20	X21	Y21	Z21	X22	Y22	Z22	X23	Y23	Z23	

285	2.840	110.79586	-32.03486	980.40248	111.55675	-46.64687	793.76637	243.23466	-13.72829	947.69585	218.68186	11.05278	640.41789	203.63067	-165.75382	666.39446	100.36646	-24.05386	687.22090	96.82615	-93.96504	701.89991	340.15902	-37.88790	426.01884	315.96511	22.76646	375.21777	269.16562	57.50330	113.95677	273.29877	-14.10342	117.72174	229.92675	13.79327	136.39676	317.74322	22.72550	104.99019	141.54939	-98.73414	368.30411	95.67671	-156.13391	345.16170	-21.89461	-148.64196	93.23219	-44.38014	-88.07067	117.58224	-62.66472	-135.85571	141.19569	4.79481	-97.62540	74.56205	144.18800	-228.42349	443.83033	258.93336	93.86389	485.87238	54.91505	-218.55471	229.07227	298.75264	99.25190	274.64629	
286	2.850	124.03504	-30.93483	975.47471	124.30994	-45.44521	788.81416	256.71051	-12.73755	942.27843	232.53189	10.54777	635.54613	214.89791	-166.31874	661.59964	113.43742	-22.69199	682.10100	109.03820	-92.62258	697.08873	353.72066	-41.90792	422.68654	331.61877	19.52612	371.29803	294.55159	54.94605	107.56001	297.14730	-16.74325	111.64961	253.48700	11.85934	128.87422	342.87633	19.41375	100.38443	149.45057	-98.61314	363.62136	102.38267	-155.58152	341.77679	-22.41834	-147.83146	93.10244	-43.54996	-86.89706	117.66460	-61.73986	-134.30607	141.98170	4.55265	-97.11082	73.82588	151.74526	-228.22178	439.75983	275.02625	91.78157	481.38547	57.20314	-218.01033	227.10893	319.43344	96.30149	269.56157	
287	2.860	137.30370	-29.79464	970.45969	137.69482	-44.37435	783.87307	270.23775	-11.64887	937.16672	246.65662	10.25970	630.79068	227.05470	-166.62982	656.74799	127.10381	-21.48318	677.33315	122.07233	-91.45592	692.51649	366.61178	-45.63314	418.48571	346.07066	16.39087	366.61096	316.47292	51.66489	101.04671	317.80918	-20.05931	105.61095	273.99260	9.10832	121.57428	364.60677	15.55225	95.47636	158.05766	-98.67093	358.95100	109.81034	-155.17144	338.47451	-21.87792	-147.23496	93.06016	-41.68041	-85.98693	117.91334	-59.61666	-133.08028	142.92210	5.03914	-96.74717	73.00910	160.12359	-228.03034	435.81447	290.40562	89.82315	476.33688	60.43540	-217.67771	225.29253	337.80610	93.07587	263.89949	
288	2.870	150.58725	-28.64618	965.49940	151.67682	-43.47431	779.07860	283.79375	-10.48850	932.49269	260.99767	10.20651	626.30158	240.06620	-166.68823	651.92549	141.29025	-20.45277	673.04489	135.85996	-90.49793	688.28143	378.88630	-48.94715	413.62397	359.38277	13.49452	361.35738	334.72306	47.93336	94.57919	335.09820	-23.78515	99.75555	291.25022	5.78935	114.67738	382.75771	11.41985	90.41292	167.53373	-98.88471	354.34838	118.13490	-154.87349	335.27222	-20.01923	-146.90204	93.08606	-38.54184	-85.40308	118.32515	-56.02411	-132.24746	144.00572	6.44115	-96.57241	72.08864	169.41145	-227.83103	432.04700	305.07303	88.09507	470.91704	64.91706	-217.54991	223.61738	353.78763	89.76779	257.86422	
289	2.880	163.86891	-27.53015	960.74477	166.19149	-42.78249	774.57228	297.35197	-9.29406	928.37875	275.47317	10.40621	622.23211	253.85977	-166.49201	647.21914	155.88892	-19.62457	669.35602	150.29563	-89.77665	684.47527	390.57423	-51.72550	408.35559	371.62438	10.98827	355.79535	349.29863	44.09115	88.34579	348.99683	-27.58946	94.24758	305.23708	2.24058	108.36781	397.33186	7.33610	85.37020	177.99791	-99.17748	349.86876	127.49703	-154.62088	332.17809	-16.65648	-146.84746	93.16977	-33.97141	-85.16505	118.88723	-50.77092	-131.82410	145.21715	8.90791	-96.60152	71.06248	179.68280	-227.57337	428.48918	319.02232	86.71009	465.37070	70.88447	-217.57925	222.07568	367.41482	86.61310	251.70293	
290	2.890	177.12844	-26.49591	956.35220	181.14713	-42.33019	770.49840	310.88101	-8.11294	924.93682	289.98344	10.87717	618.73324	268.33098	-166.03402	642.72085	170.76882	-19.01699	666.37722	165.24605	-89.31067	681.18524	401.67964	-53.83352	402.96335	382.86058	9.03464	350.21965	360.39946	40.50420	82.54660	359.65730	-31.11410	89.25789	316.10313	-1.14910	102.82331	408.50961	3.62336	80.53844	189.51583	-99.42767	345.57573	137.99313	-154.32086	329.20266	-11.67590	-147.05553	93.32125	-27.87884	-85.25284	119.58658	-43.75525	-131.77899	146.54588	12.55330	-96.83121	69.96002	190.99351	-227.18238	425.16157	332.23342	85.78347	459.97886	78.49458	-217.68593	220.66892	378.84075	83.87090	245.68280	
291	2.900	190.34119	-25.59998	952.47807	196.42960	-42.13872	766.99897	324.34422	-6.99997	922.26692	304.41900	11.63724	615.94611	283.35160	-165.30155	638.53047	185.78723	-18.63833	664.20718	180.56113	-89.10435	678.49464	412.18157	-55.12874	397.73441	393.13929	7.79696	344.93349	368.40140	37.51757	77.37248	367.38322	-34.01910	84.94979	324.15066	-3.99138	98.19877	416.62648	0.56775	76.10240	202.09961	-99.48675	341.54751	149.67251	-153.86894	326.36936	-5.03275	-147.48841	93.57965	-20.24361	-85.61541	120.41932	-34.96579	-132.04337	147.99526	17.46291	-97.24747	68.84863	203.37760	-226.57091	422.08542	344.66804	85.42684	455.03262	87.82367	-217.77121	219.41795	388.30930	81.79702	240.06224	
292	2.910	203.47781	-24.90305	949.27148	211.90899	-42.21567	764.20676	337.70032	-6.01428	920.45487	318.66997	12.70208	613.99335	298.77905	-164.27770	634.75672	200.80217	-18.48250	662.92828	196.08576	-89.14381	676.48153	422.03736	-55.47058	392.93286	402.47950	7.42412	340.21646	373.80601	35.40933	72.98149	372.59391	-36.02728	81.46082	329.79426	-5.95373	94.60666	422.13302	-1.61481	72.22110	215.71640	-99.20265	337.87910	162.54043	-153.16450	323.72201	3.25601	-148.09620	94.01741	-11.10474	-86.18191	121.39751	-24.47473	-132.52384	149.58893	23.70321	-97.83402	67.83443	216.84335	-225.65407	419.29428	356.26877	85.73894	450.80272	98.87160	-217.73336	218.37073	396.11234	80.61411	235.06133	
293	2.920	216.50465	-24.46543	946.86547	227.44753	-42.55204	762.23711	350.90482	-5.21557	919.56884	332.63546	14.08275	612.97012	314.46609	-162.94427	631.51499	215.68411	-18.52593	662.60100	211.67108	-89.39474	675.21527	431.18814	-54.73866	388.77349	410.86444	8.03224	336.29443	377.17614	34.35445	69.47856	375.77709	-36.96037	78.88474	333.50841	-6.80748	92.09984	425.54365	-2.80183	69.01086	230.30264	-98.44498	334.67941	176.56543	-152.12578	321.32763	13.12248	-148.82666	94.73766	-0.54526	-86.87332	122.55168	-12.42353	-133.11558	151.37260	31.33018	-98.57959	67.05600	231.36957	-224.36356	416.84270	366.96305	86.79366	447.50969	111.56929	-217.48377	217.60632	402.53958	80.48254	230.83869	
294	2.930	229.38494	-24.34145	945.36749	242.90813	-43.12079	761.17912	363.91250	-4.66020	919.65501	346.23170	15.78314	612.93595	330.27019	-161.28555	628.92191	230.32529	-18.72679	663.25790	227.18399	-89.80277	674.75115	439.56615	-52.85748	385.40186	418.24353	9.68536	333.31740	379.06984	34.40510	66.90397	377.43795	-36.76024	77.25842	335.77270	-6.45931	90.66210	427.38303	-2.97362	66.53542	245.78045	-97.12737	332.06343	191.68863	-150.70188	319.27376	24.46109	-149.63297	95.86386	11.32667	-87.61300	123.92782	0.99791	-133.71441	153.40979	40.39535	-99.48228	66.67083	246.90315	-222.65947	414.80974	376.67277	88.62685	445.30013	125.78829	-216.96092	217.23359	407.83375	81.47714	227.47983	
295	2.940	242.08079	-24.57321	944.85028	258.16249	-43.87731	761.08744	376.68048	-4.39719	920.73268	359.39751	17.79783	613.90876	346.06133	-159.29249	627.08674	244.64551	-19.02711	664.89800	242.51389	-90.29695	675.12397	447.10349	-49.82237	382.88532	424.54516	12.37897	331.34966	379.98475	35.49034	65.23369	378.05320	-35.49198	76.55756	337.02513	-4.96046	90.21041	428.13856	-2.20821	64.80447	262.07267	-95.22286	330.14109	207.83364	-148.88017	317.66073	37.14423	-150.47863	97.52257	24.39734	-88.33483	125.57907	15.57707	-134.22672	155.77135	50.94797	-100.54997	66.83592	263.35895	-220.53768	413.29600	385.32937	91.22488	444.23371	141.35367	-216.13971	217.38336	412.16246	83.57400	224.99944	
296	2.950	254.55575	-25.18461	945.34436	273.09806	-44.76198	761.97567	389.17175	-4.46459	922.78944	372.09670	20.11056	615.86175	361.72777	-156.96637	626.10068	258.59381	-19.35782	667.48264	257.57612	-90.79605	676.34142	453.74226	-45.71893	381.21679	429.69948	16.03013	330.37407	380.32168	37.43336	64.39100	378.03706	-33.32950	76.70228	337.63096	-2.49367	90.60887	428.22608	-0.66419	63.77999	279.11414	-92.76944	329.00481	224.91574	-146.68830	316.58979	51.03967	-151.33913	99.82173	38.56510	-88.98859	127.55379	31.10714	-134.57730	158.52062	63.03317	-101.79683	67.68548	280.62303	-218.03228	412.41393	392.89218	94.51823	444.28288	158.06141	-215.03496	218.19322	415.61328	86.65026	223.35477	
297	2.960	266.77786	-26.17652	946.83323	287.62320	-45.70450	763.81259	401.35857	-4.88655	925.77725	384.31701	22.69377	618.72375	377.17928	-154.32146	626.02552	272.14605	-19.64618	670.93365	272.31190	-91.21697	678.37852	459.44580	-40.72846	380.32976	433.66655	20.47771	330.30779	380.37039	39.98142	64.26522	377.72269	-30.52751	77.57099	337.86975	0.65762	91.69105	427.97158	1.44489	63.38791	296.85800	-89.86489	328.71834	242.85015	-144.19063	316.14936	66.02824	-152.20116	102.82854	53.75383	-89.54267	129.88263	47.41402	-134.71507	161.69711	76.68730	-103.23676	69.30951	298.55985	-215.21275	412.27305	399.36637	98.38279	445.34435	175.70118	-213.69818	219.78642	418.21070	90.49734	222.46483	
